<svg xmlns="http://www.w3.org/2000/svg" xmlns:xlink="http://www.w3.org/1999/xlink" width="500" zoomAndPan="magnify" viewBox="0 0 375 374.999991" height="500" preserveAspectRatio="xMidYMid meet" version="1.0"><defs><g/><clipPath id="b1322b13a8"><path d="M 17.628906 182 L 27 182 L 27 191 L 17.628906 191 Z M 17.628906 182 " clip-rule="nonzero"/></clipPath><clipPath id="de4c401e47"><path d="M 39 166.890625 L 46 166.890625 L 46 179 L 39 179 Z M 39 166.890625 " clip-rule="nonzero"/></clipPath><clipPath id="b8b51acab8"><path d="M 17.628906 191 L 27 191 L 27 200 L 17.628906 200 Z M 17.628906 191 " clip-rule="nonzero"/></clipPath><clipPath id="2bd0d422a6"><path d="M 22 195 L 35 195 L 35 214.890625 L 22 214.890625 Z M 22 195 " clip-rule="nonzero"/></clipPath><clipPath id="3c4692b134"><path d="M 48 187 L 57.367188 187 L 57.367188 196 L 48 196 Z M 48 187 " clip-rule="nonzero"/></clipPath></defs><g clip-path="url(#b1322b13a8)"><path fill="#80cc28" d="M 17.617188 182.4375 C 17.617188 182.4375 28.441406 181.554688 26.238281 189.808594 C 21.257812 192.078125 19.90625 188.140625 19.011719 185.210938 C 18.519531 183.589844 17.617188 182.4375 17.617188 182.4375 " fill-opacity="1" fill-rule="nonzero"/></g><path fill="#80cc28" d="M 26.648438 171.183594 C 26.648438 171.183594 34.917969 178.265625 27.566406 182.535156 C 22.449219 180.59375 24.257812 176.84375 25.6875 174.136719 C 26.472656 172.640625 26.648438 171.183594 26.648438 171.183594 " fill-opacity="1" fill-rule="nonzero"/><g clip-path="url(#de4c401e47)"><path fill="#80cc28" d="M 43.25 166.894531 C 43.25 166.894531 34.976562 173.972656 42.332031 178.242188 C 47.445312 176.300781 45.636719 172.550781 44.210938 169.84375 C 43.421875 168.347656 43.25 166.894531 43.25 166.894531 " fill-opacity="1" fill-rule="nonzero"/></g><path fill="#80cc28" d="M 47.410156 174.992188 C 47.410156 174.992188 40.996094 180.484375 46.699219 183.796875 C 50.667969 182.289062 49.265625 179.382812 48.15625 177.28125 C 47.546875 176.121094 47.410156 174.992188 47.410156 174.992188 " fill-opacity="1" fill-rule="nonzero"/><path fill="#80cc28" d="M 28.414062 182.417969 C 28.414062 182.417969 36.136719 181.894531 34.492188 187.757812 C 30.917969 189.328125 29.992188 186.507812 29.382812 184.410156 C 29.046875 183.25 28.414062 182.417969 28.414062 182.417969 " fill-opacity="1" fill-rule="nonzero"/><path fill="#1c6434" d="M 47.214844 180.144531 C 47.214844 179.785156 46.925781 179.496094 46.566406 179.496094 C 46.210938 179.496094 45.917969 179.785156 45.917969 180.144531 C 45.917969 180.503906 46.210938 180.796875 46.566406 180.796875 C 46.925781 180.796875 47.214844 180.503906 47.214844 180.144531 Z M 46.253906 181.253906 C 45.773438 181.117188 45.421875 180.671875 45.421875 180.144531 C 45.421875 179.511719 45.933594 178.996094 46.566406 178.996094 C 47.199219 178.996094 47.710938 179.511719 47.710938 180.144531 C 47.710938 180.636719 47.40625 181.054688 46.976562 181.21875 L 46.976562 191.976562 L 39.84375 199.15625 L 39.84375 208.941406 L 39.121094 208.941406 L 39.121094 198.855469 L 46.253906 191.675781 L 46.253906 181.253906 " fill-opacity="1" fill-rule="nonzero"/><path fill="#1c6434" d="M 43.152344 174.761719 C 43.152344 174.402344 42.863281 174.109375 42.503906 174.109375 C 42.148438 174.109375 41.859375 174.402344 41.859375 174.761719 C 41.859375 175.121094 42.148438 175.414062 42.503906 175.414062 C 42.863281 175.414062 43.152344 175.121094 43.152344 174.761719 Z M 42.160156 175.859375 C 41.699219 175.710938 41.359375 175.277344 41.359375 174.761719 C 41.359375 174.125 41.871094 173.609375 42.503906 173.609375 C 43.136719 173.609375 43.648438 174.125 43.648438 174.761719 C 43.648438 175.261719 43.328125 175.6875 42.882812 175.847656 L 42.882812 185.753906 L 39.84375 188.816406 L 39.84375 195.617188 L 39.121094 195.617188 L 39.121094 188.515625 L 42.160156 185.453125 L 42.160156 175.859375 " fill-opacity="1" fill-rule="nonzero"/><path fill="#1c6434" d="M 23.636719 187.898438 C 23.996094 187.898438 24.285156 187.605469 24.285156 187.246094 C 24.285156 186.886719 23.996094 186.59375 23.636719 186.59375 C 23.28125 186.59375 22.988281 186.886719 22.988281 187.246094 C 22.988281 187.605469 23.28125 187.898438 23.636719 187.898438 Z M 23.636719 186.09375 C 24.269531 186.09375 24.78125 186.609375 24.78125 187.246094 C 24.78125 187.4375 24.734375 187.617188 24.652344 187.777344 L 30.78125 193.945312 L 30.78125 197.785156 L 34.007812 201.035156 L 34.007812 205.914062 L 33.285156 205.914062 L 33.285156 201.335938 L 30.058594 198.085938 L 30.058594 194.246094 L 24.132812 188.28125 C 23.984375 188.355469 23.816406 188.398438 23.636719 188.398438 C 23.003906 188.398438 22.492188 187.882812 22.492188 187.246094 C 22.492188 186.609375 23.003906 186.09375 23.636719 186.09375 " fill-opacity="1" fill-rule="nonzero"/><g clip-path="url(#b8b51acab8)"><path fill="#80cc28" d="M 17.617188 191.417969 C 17.617188 191.417969 28.441406 190.535156 26.238281 198.789062 C 21.257812 201.058594 19.90625 197.117188 19.011719 194.1875 C 18.519531 192.570312 17.617188 191.417969 17.617188 191.417969 " fill-opacity="1" fill-rule="nonzero"/></g><g clip-path="url(#2bd0d422a6)"><path fill="#1c6434" d="M 23.636719 196.875 C 23.996094 196.875 24.285156 196.585938 24.285156 196.226562 C 24.285156 195.867188 23.996094 195.574219 23.636719 195.574219 C 23.28125 195.574219 22.988281 195.867188 22.988281 196.226562 C 22.988281 196.585938 23.28125 196.875 23.636719 196.875 Z M 23.636719 195.074219 C 24.269531 195.074219 24.78125 195.589844 24.78125 196.226562 C 24.78125 196.417969 24.734375 196.597656 24.652344 196.753906 L 30.78125 202.925781 L 30.78125 206.765625 L 34.007812 210.015625 L 34.007812 214.890625 L 33.285156 214.890625 L 33.285156 210.316406 L 30.058594 207.066406 L 30.058594 203.226562 L 24.132812 197.261719 C 23.984375 197.335938 23.816406 197.375 23.636719 197.375 C 23.003906 197.375 22.492188 196.859375 22.492188 196.226562 C 22.492188 195.589844 23.003906 195.074219 23.636719 195.074219 " fill-opacity="1" fill-rule="nonzero"/></g><g clip-path="url(#3c4692b134)"><path fill="#80cc28" d="M 57.367188 187.925781 C 57.367188 187.925781 46.546875 187.042969 48.746094 195.296875 C 53.730469 197.566406 55.082031 193.625 55.976562 190.695312 C 56.46875 189.078125 57.367188 187.925781 57.367188 187.925781 " fill-opacity="1" fill-rule="nonzero"/></g><path fill="#1c6434" d="M 51.996094 192.734375 C 51.996094 192.375 51.707031 192.082031 51.347656 192.082031 C 50.992188 192.082031 50.703125 192.375 50.703125 192.734375 C 50.703125 193.09375 50.992188 193.382812 51.347656 193.382812 C 51.707031 193.382812 51.996094 193.09375 51.996094 192.734375 Z M 52.492188 192.734375 C 52.492188 193.367188 51.980469 193.882812 51.347656 193.882812 C 51.171875 193.882812 51.003906 193.84375 50.851562 193.769531 L 44.929688 199.734375 L 44.929688 203.574219 L 41.699219 206.824219 L 41.699219 211.398438 L 40.980469 211.398438 L 40.980469 206.523438 L 44.207031 203.273438 L 44.207031 199.433594 L 50.335938 193.261719 C 50.253906 193.105469 50.207031 192.925781 50.207031 192.734375 C 50.207031 192.097656 50.71875 191.582031 51.347656 191.582031 C 51.980469 191.582031 52.492188 192.097656 52.492188 192.734375 " fill-opacity="1" fill-rule="nonzero"/><path fill="#1c6434" d="M 27.621094 178.742188 C 27.261719 178.742188 26.972656 179.035156 26.972656 179.394531 C 26.972656 179.753906 27.261719 180.046875 27.621094 180.046875 C 27.976562 180.046875 28.265625 179.753906 28.265625 179.394531 C 28.265625 179.035156 27.976562 178.742188 27.621094 178.742188 Z M 28.023438 180.472656 L 28.023438 186.953125 L 34.007812 192.976562 L 34.007812 198.640625 L 33.285156 198.640625 L 33.285156 193.277344 L 27.300781 187.253906 L 27.300781 180.5 C 26.824219 180.363281 26.476562 179.921875 26.476562 179.394531 C 26.476562 178.757812 26.988281 178.242188 27.621094 178.242188 C 28.253906 178.242188 28.765625 178.757812 28.765625 179.394531 C 28.765625 179.886719 28.457031 180.304688 28.023438 180.472656 " fill-opacity="1" fill-rule="nonzero"/><path fill="#1c6434" d="M 32.066406 184.675781 C 31.707031 184.675781 31.417969 184.964844 31.417969 185.324219 C 31.417969 185.6875 31.707031 185.976562 32.066406 185.976562 C 32.421875 185.976562 32.710938 185.6875 32.710938 185.324219 C 32.710938 184.964844 32.421875 184.675781 32.066406 184.675781 Z M 32.066406 186.476562 C 31.433594 186.476562 30.921875 185.960938 30.921875 185.324219 C 30.921875 184.691406 31.433594 184.175781 32.066406 184.175781 C 32.695312 184.175781 33.207031 184.691406 33.207031 185.324219 C 33.207031 185.503906 33.167969 185.671875 33.09375 185.824219 L 36.851562 189.605469 L 36.851562 212.546875 L 36.128906 212.546875 L 36.128906 189.90625 L 32.59375 186.347656 C 32.433594 186.429688 32.253906 186.476562 32.066406 186.476562 " fill-opacity="1" fill-rule="nonzero"/><g fill="#1c6434" fill-opacity="1"><g transform="translate(74.420912, 202.752669)"><g><path d="M 39.765625 -32.0625 L 47 -32.0625 L 37.15625 0 L 30.96875 0 L 23.78125 -17.953125 L 16.859375 0 L 10.671875 0 L 0.546875 -32.0625 L 7.921875 -32.0625 L 14.203125 -10.765625 L 22.625 -31.75 L 24.96875 -31.75 L 33.625 -10.765625 Z M 39.765625 -32.0625 "/></g></g></g><g fill="#1c6434" fill-opacity="1"><g transform="translate(122.107836, 202.752669)"><g><path d="M 23.40625 -24.78125 L 28.40625 -24.78125 L 28.40625 -0.046875 L 23.140625 -0.046875 L 22.578125 -2.25 C 21.515625 -1.332031 20.300781 -0.613281 18.9375 -0.09375 C 17.582031 0.425781 16.125 0.6875 14.5625 0.6875 C 12.09375 0.6875 9.878906 0.113281 7.921875 -1.03125 C 5.972656 -2.175781 4.429688 -3.734375 3.296875 -5.703125 C 2.171875 -7.671875 1.609375 -9.910156 1.609375 -12.421875 C 1.609375 -14.890625 2.171875 -17.109375 3.296875 -19.078125 C 4.429688 -21.046875 5.972656 -22.59375 7.921875 -23.71875 C 9.878906 -24.851562 12.09375 -25.421875 14.5625 -25.421875 C 16.15625 -25.421875 17.640625 -25.15625 19.015625 -24.625 C 20.390625 -24.09375 21.609375 -23.351562 22.671875 -22.40625 Z M 15.125 -5.640625 C 16.40625 -5.640625 17.554688 -5.925781 18.578125 -6.5 C 19.597656 -7.082031 20.398438 -7.882812 20.984375 -8.90625 C 21.566406 -9.925781 21.859375 -11.097656 21.859375 -12.421875 C 21.859375 -13.703125 21.566406 -14.851562 20.984375 -15.875 C 20.398438 -16.894531 19.597656 -17.703125 18.578125 -18.296875 C 17.554688 -18.898438 16.40625 -19.203125 15.125 -19.203125 C 13.800781 -19.203125 12.632812 -18.898438 11.625 -18.296875 C 10.625 -17.703125 9.832031 -16.894531 9.25 -15.875 C 8.675781 -14.851562 8.390625 -13.703125 8.390625 -12.421875 C 8.390625 -11.097656 8.675781 -9.929688 9.25 -8.921875 C 9.832031 -7.921875 10.625 -7.125 11.625 -6.53125 C 12.632812 -5.9375 13.800781 -5.640625 15.125 -5.640625 Z M 15.125 -5.640625 "/></g></g></g><g fill="#1c6434" fill-opacity="1"><g transform="translate(153.715885, 202.752669)"><g><path d="M 12 0.6875 C 9.925781 0.6875 8.109375 0.320312 6.546875 -0.40625 C 4.992188 -1.144531 3.78125 -2.175781 2.90625 -3.5 C 2.039062 -4.832031 1.609375 -6.382812 1.609375 -8.15625 L 8.109375 -8.15625 C 8.140625 -7.050781 8.535156 -6.222656 9.296875 -5.671875 C 10.054688 -5.128906 11.035156 -4.859375 12.234375 -4.859375 C 13.179688 -4.859375 14.003906 -5.0625 14.703125 -5.46875 C 15.410156 -5.882812 15.765625 -6.503906 15.765625 -7.328125 C 15.765625 -8.179688 15.296875 -8.785156 14.359375 -9.140625 C 13.429688 -9.492188 12.3125 -9.773438 11 -9.984375 C 10.019531 -10.140625 9.003906 -10.351562 7.953125 -10.625 C 6.898438 -10.90625 5.925781 -11.300781 5.03125 -11.8125 C 4.144531 -12.332031 3.421875 -13.050781 2.859375 -13.96875 C 2.296875 -14.882812 2.015625 -16.078125 2.015625 -17.546875 C 2.015625 -19.097656 2.429688 -20.46875 3.265625 -21.65625 C 4.109375 -22.851562 5.269531 -23.78125 6.75 -24.4375 C 8.238281 -25.09375 9.988281 -25.421875 12 -25.421875 C 13.988281 -25.421875 15.722656 -25.078125 17.203125 -24.390625 C 18.679688 -23.703125 19.832031 -22.738281 20.65625 -21.5 C 21.476562 -20.269531 21.890625 -18.832031 21.890625 -17.1875 L 15.53125 -17.1875 C 15.53125 -18.15625 15.203125 -18.882812 14.546875 -19.375 C 13.890625 -19.863281 12.976562 -20.109375 11.8125 -20.109375 C 10.78125 -20.109375 9.972656 -19.882812 9.390625 -19.4375 C 8.804688 -19 8.515625 -18.429688 8.515625 -17.734375 C 8.515625 -16.910156 8.972656 -16.34375 9.890625 -16.03125 C 10.804688 -15.726562 11.90625 -15.46875 13.1875 -15.25 C 14.195312 -15.070312 15.234375 -14.851562 16.296875 -14.59375 C 17.367188 -14.332031 18.363281 -13.941406 19.28125 -13.421875 C 20.195312 -12.898438 20.9375 -12.179688 21.5 -11.265625 C 22.070312 -10.347656 22.359375 -9.144531 22.359375 -7.65625 C 22.359375 -5.96875 21.929688 -4.5 21.078125 -3.25 C 20.222656 -2 19.015625 -1.03125 17.453125 -0.34375 C 15.898438 0.34375 14.082031 0.6875 12 0.6875 Z M 12 0.6875 "/></g></g></g><g fill="#1c6434" fill-opacity="1"><g transform="translate(177.765484, 202.752669)"><g><path d="M 15.296875 -5.953125 L 18.328125 -5.953125 L 18.328125 0 L 13.609375 0 C 10.890625 0 8.742188 -0.785156 7.171875 -2.359375 C 5.597656 -3.929688 4.8125 -6.09375 4.8125 -8.84375 L 4.8125 -19.375 L 0.328125 -19.375 L 0.328125 -20.796875 L 10.125 -31.203125 L 11.359375 -31.203125 L 11.359375 -24.734375 L 18.1875 -24.734375 L 18.1875 -19.375 L 11.5 -19.375 L 11.5 -9.71875 C 11.5 -8.519531 11.828125 -7.59375 12.484375 -6.9375 C 13.140625 -6.28125 14.078125 -5.953125 15.296875 -5.953125 Z M 15.296875 -5.953125 "/></g></g></g><g fill="#1c6434" fill-opacity="1"><g transform="translate(197.463251, 202.752669)"><g><path d="M 27.21875 -12.46875 C 27.21875 -11.820312 27.171875 -11.160156 27.078125 -10.484375 L 8.390625 -10.484375 C 8.660156 -8.804688 9.328125 -7.515625 10.390625 -6.609375 C 11.460938 -5.710938 12.8125 -5.265625 14.4375 -5.265625 C 15.59375 -5.265625 16.628906 -5.515625 17.546875 -6.015625 C 18.460938 -6.523438 19.164062 -7.222656 19.65625 -8.109375 L 26.703125 -8.109375 C 25.785156 -5.421875 24.226562 -3.28125 22.03125 -1.6875 C 19.832031 -0.101562 17.300781 0.6875 14.4375 0.6875 C 11.988281 0.6875 9.796875 0.113281 7.859375 -1.03125 C 5.921875 -2.175781 4.394531 -3.734375 3.28125 -5.703125 C 2.164062 -7.671875 1.609375 -9.894531 1.609375 -12.375 C 1.609375 -14.84375 2.164062 -17.0625 3.28125 -19.03125 C 4.394531 -21 5.921875 -22.554688 7.859375 -23.703125 C 9.796875 -24.847656 11.988281 -25.421875 14.4375 -25.421875 C 16.96875 -25.421875 19.191406 -24.832031 21.109375 -23.65625 C 23.035156 -22.476562 24.535156 -20.910156 25.609375 -18.953125 C 26.679688 -17.003906 27.21875 -14.84375 27.21875 -12.46875 Z M 14.4375 -19.75 C 12.9375 -19.75 11.671875 -19.332031 10.640625 -18.5 C 9.617188 -17.675781 8.925781 -16.535156 8.5625 -15.078125 L 20.53125 -15.078125 C 19.550781 -18.191406 17.519531 -19.75 14.4375 -19.75 Z M 14.4375 -19.75 "/></g></g></g><g fill="#1c6434" fill-opacity="1"><g transform="translate(226.231149, 202.752669)"><g/></g></g><g fill="#1c6434" fill-opacity="1"><g transform="translate(237.179439, 202.752669)"><g><path d="M 39.765625 -32.0625 L 47 -32.0625 L 37.15625 0 L 30.96875 0 L 23.78125 -17.953125 L 16.859375 0 L 10.671875 0 L 0.546875 -32.0625 L 7.921875 -32.0625 L 14.203125 -10.765625 L 22.625 -31.75 L 24.96875 -31.75 L 33.625 -10.765625 Z M 39.765625 -32.0625 "/></g></g></g><g fill="#1c6434" fill-opacity="1"><g transform="translate(284.866373, 202.752669)"><g><path d="M 3.203125 -28.03125 L 3.203125 -34.265625 L 9.890625 -34.265625 L 9.890625 -28.03125 Z M 3.203125 0 L 3.203125 -24.734375 L 9.890625 -24.734375 L 9.890625 0 Z M 3.203125 0 "/></g></g></g><g fill="#1c6434" fill-opacity="1"><g transform="translate(297.967682, 202.752669)"><g><path d="M 12 0.6875 C 9.925781 0.6875 8.109375 0.320312 6.546875 -0.40625 C 4.992188 -1.144531 3.78125 -2.175781 2.90625 -3.5 C 2.039062 -4.832031 1.609375 -6.382812 1.609375 -8.15625 L 8.109375 -8.15625 C 8.140625 -7.050781 8.535156 -6.222656 9.296875 -5.671875 C 10.054688 -5.128906 11.035156 -4.859375 12.234375 -4.859375 C 13.179688 -4.859375 14.003906 -5.0625 14.703125 -5.46875 C 15.410156 -5.882812 15.765625 -6.503906 15.765625 -7.328125 C 15.765625 -8.179688 15.296875 -8.785156 14.359375 -9.140625 C 13.429688 -9.492188 12.3125 -9.773438 11 -9.984375 C 10.019531 -10.140625 9.003906 -10.351562 7.953125 -10.625 C 6.898438 -10.90625 5.925781 -11.300781 5.03125 -11.8125 C 4.144531 -12.332031 3.421875 -13.050781 2.859375 -13.96875 C 2.296875 -14.882812 2.015625 -16.078125 2.015625 -17.546875 C 2.015625 -19.097656 2.429688 -20.46875 3.265625 -21.65625 C 4.109375 -22.851562 5.269531 -23.78125 6.75 -24.4375 C 8.238281 -25.09375 9.988281 -25.421875 12 -25.421875 C 13.988281 -25.421875 15.722656 -25.078125 17.203125 -24.390625 C 18.679688 -23.703125 19.832031 -22.738281 20.65625 -21.5 C 21.476562 -20.269531 21.890625 -18.832031 21.890625 -17.1875 L 15.53125 -17.1875 C 15.53125 -18.15625 15.203125 -18.882812 14.546875 -19.375 C 13.890625 -19.863281 12.976562 -20.109375 11.8125 -20.109375 C 10.78125 -20.109375 9.972656 -19.882812 9.390625 -19.4375 C 8.804688 -19 8.515625 -18.429688 8.515625 -17.734375 C 8.515625 -16.910156 8.972656 -16.34375 9.890625 -16.03125 C 10.804688 -15.726562 11.90625 -15.46875 13.1875 -15.25 C 14.195312 -15.070312 15.234375 -14.851562 16.296875 -14.59375 C 17.367188 -14.332031 18.363281 -13.941406 19.28125 -13.421875 C 20.195312 -12.898438 20.9375 -12.179688 21.5 -11.265625 C 22.070312 -10.347656 22.359375 -9.144531 22.359375 -7.65625 C 22.359375 -5.96875 21.929688 -4.5 21.078125 -3.25 C 20.222656 -2 19.015625 -1.03125 17.453125 -0.34375 C 15.898438 0.34375 14.082031 0.6875 12 0.6875 Z M 12 0.6875 "/></g></g></g><g fill="#1c6434" fill-opacity="1"><g transform="translate(322.01727, 202.752669)"><g><path d="M 27.21875 -12.46875 C 27.21875 -11.820312 27.171875 -11.160156 27.078125 -10.484375 L 8.390625 -10.484375 C 8.660156 -8.804688 9.328125 -7.515625 10.390625 -6.609375 C 11.460938 -5.710938 12.8125 -5.265625 14.4375 -5.265625 C 15.59375 -5.265625 16.628906 -5.515625 17.546875 -6.015625 C 18.460938 -6.523438 19.164062 -7.222656 19.65625 -8.109375 L 26.703125 -8.109375 C 25.785156 -5.421875 24.226562 -3.28125 22.03125 -1.6875 C 19.832031 -0.101562 17.300781 0.6875 14.4375 0.6875 C 11.988281 0.6875 9.796875 0.113281 7.859375 -1.03125 C 5.921875 -2.175781 4.394531 -3.734375 3.28125 -5.703125 C 2.164062 -7.671875 1.609375 -9.894531 1.609375 -12.375 C 1.609375 -14.84375 2.164062 -17.0625 3.28125 -19.03125 C 4.394531 -21 5.921875 -22.554688 7.859375 -23.703125 C 9.796875 -24.847656 11.988281 -25.421875 14.4375 -25.421875 C 16.96875 -25.421875 19.191406 -24.832031 21.109375 -23.65625 C 23.035156 -22.476562 24.535156 -20.910156 25.609375 -18.953125 C 26.679688 -17.003906 27.21875 -14.84375 27.21875 -12.46875 Z M 14.4375 -19.75 C 12.9375 -19.75 11.671875 -19.332031 10.640625 -18.5 C 9.617188 -17.675781 8.925781 -16.535156 8.5625 -15.078125 L 20.53125 -15.078125 C 19.550781 -18.191406 17.519531 -19.75 14.4375 -19.75 Z M 14.4375 -19.75 "/></g></g></g></svg>