<svg xmlns="http://www.w3.org/2000/svg" xmlns:xlink="http://www.w3.org/1999/xlink" width="500" zoomAndPan="magnify" viewBox="0 0 375 374.999991" height="500" preserveAspectRatio="xMidYMid meet" version="1.0"><defs><g/><clipPath id="b641550519"><path d="M 124.96875 130 L 153 130 L 153 156 L 124.96875 156 Z M 124.96875 130 " clip-rule="nonzero"/></clipPath><clipPath id="68fe67684d"><path d="M 193 81.507812 L 214 81.507812 L 214 117 L 193 117 Z M 193 81.507812 " clip-rule="nonzero"/></clipPath><clipPath id="c58a18dfd9"><path d="M 124.96875 158 L 153 158 L 153 184 L 124.96875 184 Z M 124.96875 158 " clip-rule="nonzero"/></clipPath><clipPath id="9c691f30ab"><path d="M 140 169 L 177 169 L 177 231.507812 L 140 231.507812 Z M 140 169 " clip-rule="nonzero"/></clipPath><clipPath id="998aba7c4c"><path d="M 221 147 L 250.03125 147 L 250.03125 173 L 221 173 Z M 221 147 " clip-rule="nonzero"/></clipPath></defs><g clip-path="url(#b641550519)"><path fill="#80cc28" d="M 124.789062 130.089844 C 124.789062 130.089844 158.886719 127.335938 151.949219 153.128906 C 136.253906 160.21875 131.988281 147.90625 129.175781 138.75 C 127.621094 133.691406 124.789062 130.089844 124.789062 130.089844 " fill-opacity="1" fill-rule="nonzero"/></g><path fill="#80cc28" d="M 153.234375 94.929688 C 153.234375 94.929688 179.296875 117.054688 156.128906 130.398438 C 140.011719 124.328125 145.714844 112.609375 150.207031 104.152344 C 152.691406 99.472656 153.234375 94.929688 153.234375 94.929688 " fill-opacity="1" fill-rule="nonzero"/><g clip-path="url(#68fe67684d)"><path fill="#80cc28" d="M 205.546875 81.515625 C 205.546875 81.515625 179.484375 103.644531 202.65625 116.984375 C 218.773438 110.917969 213.070312 99.199219 208.578125 90.738281 C 206.09375 86.0625 205.546875 81.515625 205.546875 81.515625 " fill-opacity="1" fill-rule="nonzero"/></g><path fill="#80cc28" d="M 218.664062 106.828125 C 218.664062 106.828125 198.449219 123.992188 216.421875 134.339844 C 228.921875 129.632812 224.5 120.542969 221.015625 113.984375 C 219.085938 110.355469 218.664062 106.828125 218.664062 106.828125 " fill-opacity="1" fill-rule="nonzero"/><path fill="#80cc28" d="M 158.808594 130.035156 C 158.808594 130.035156 183.144531 128.398438 177.949219 146.71875 C 166.695312 151.621094 163.773438 142.804688 161.855469 136.25 C 160.796875 132.628906 158.808594 130.035156 158.808594 130.035156 " fill-opacity="1" fill-rule="nonzero"/><path fill="#1c6434" d="M 218.039062 122.929688 C 218.039062 121.804688 217.128906 120.894531 216.003906 120.894531 C 214.875 120.894531 213.964844 121.804688 213.964844 122.929688 C 213.964844 124.054688 214.875 124.964844 216.003906 124.964844 C 217.128906 124.964844 218.039062 124.054688 218.039062 122.929688 Z M 215.015625 126.386719 C 213.507812 125.960938 212.398438 124.574219 212.398438 122.929688 C 212.398438 120.945312 214.011719 119.332031 216.003906 119.332031 C 217.992188 119.332031 219.605469 120.945312 219.605469 122.929688 C 219.605469 124.460938 218.644531 125.765625 217.292969 126.285156 L 217.292969 159.894531 L 194.820312 182.332031 L 194.820312 212.914062 L 192.546875 212.914062 L 192.546875 181.390625 L 215.015625 158.953125 L 215.015625 126.386719 " fill-opacity="1" fill-rule="nonzero"/><path fill="#1c6434" d="M 205.238281 106.101562 C 205.238281 104.976562 204.328125 104.066406 203.203125 104.066406 C 202.074219 104.066406 201.164062 104.976562 201.164062 106.101562 C 201.164062 107.226562 202.074219 108.136719 203.203125 108.136719 C 204.328125 108.136719 205.238281 107.226562 205.238281 106.101562 Z M 202.121094 109.535156 C 200.660156 109.074219 199.597656 107.710938 199.597656 106.101562 C 199.597656 104.113281 201.210938 102.503906 203.203125 102.503906 C 205.191406 102.503906 206.804688 104.113281 206.804688 106.101562 C 206.804688 107.667969 205.796875 109 204.398438 109.492188 L 204.398438 140.457031 L 194.820312 150.019531 L 194.820312 171.277344 L 192.546875 171.277344 L 192.546875 149.078125 L 202.121094 139.515625 L 202.121094 109.535156 " fill-opacity="1" fill-rule="nonzero"/><path fill="#1c6434" d="M 143.753906 147.152344 C 144.878906 147.152344 145.789062 146.242188 145.789062 145.117188 C 145.789062 143.992188 144.878906 143.082031 143.753906 143.082031 C 142.625 143.082031 141.714844 143.992188 141.714844 145.117188 C 141.714844 146.242188 142.625 147.152344 143.753906 147.152344 Z M 143.753906 141.519531 C 145.742188 141.519531 147.355469 143.128906 147.355469 145.117188 C 147.355469 145.714844 147.207031 146.277344 146.949219 146.769531 L 166.257812 166.054688 L 166.257812 178.054688 L 176.429688 188.207031 L 176.429688 203.449219 L 174.152344 203.449219 L 174.152344 189.148438 L 163.984375 178.996094 L 163.984375 166.996094 L 145.316406 148.355469 C 144.84375 148.582031 144.3125 148.714844 143.753906 148.714844 C 141.761719 148.714844 140.148438 147.101562 140.148438 145.117188 C 140.148438 143.128906 141.761719 141.519531 143.753906 141.519531 " fill-opacity="1" fill-rule="nonzero"/><g clip-path="url(#c58a18dfd9)"><path fill="#80cc28" d="M 124.789062 158.148438 C 124.789062 158.148438 158.886719 155.394531 151.949219 181.1875 C 136.253906 188.277344 131.988281 175.964844 129.175781 166.808594 C 127.621094 161.75 124.789062 158.148438 124.789062 158.148438 " fill-opacity="1" fill-rule="nonzero"/></g><g clip-path="url(#9c691f30ab)"><path fill="#1c6434" d="M 143.753906 175.210938 C 144.878906 175.210938 145.789062 174.296875 145.789062 173.175781 C 145.789062 172.050781 144.878906 171.140625 143.753906 171.140625 C 142.625 171.140625 141.714844 172.050781 141.714844 173.175781 C 141.714844 174.296875 142.625 175.210938 143.753906 175.210938 Z M 143.753906 169.578125 C 145.742188 169.578125 147.355469 171.1875 147.355469 173.175781 C 147.355469 173.773438 147.207031 174.332031 146.949219 174.832031 L 166.257812 194.113281 L 166.257812 206.113281 L 176.429688 216.265625 L 176.429688 231.503906 L 174.152344 231.503906 L 174.152344 217.207031 L 163.984375 207.054688 L 163.984375 195.054688 L 145.316406 176.410156 C 144.84375 176.640625 144.3125 176.773438 143.753906 176.773438 C 141.761719 176.773438 140.148438 175.160156 140.148438 173.175781 C 140.148438 171.1875 141.761719 169.578125 143.753906 169.578125 " fill-opacity="1" fill-rule="nonzero"/></g><g clip-path="url(#998aba7c4c)"><path fill="#80cc28" d="M 250.035156 147.238281 C 250.035156 147.238281 215.9375 144.480469 222.875 170.277344 C 238.570312 177.363281 242.832031 165.054688 245.648438 155.898438 C 247.203125 150.835938 250.035156 147.238281 250.035156 147.238281 " fill-opacity="1" fill-rule="nonzero"/></g><path fill="#1c6434" d="M 233.109375 162.261719 C 233.109375 161.140625 232.195312 160.226562 231.070312 160.226562 C 229.945312 160.226562 229.03125 161.140625 229.03125 162.261719 C 229.03125 163.386719 229.945312 164.296875 231.070312 164.296875 C 232.195312 164.296875 233.109375 163.386719 233.109375 162.261719 Z M 234.675781 162.261719 C 234.675781 164.25 233.0625 165.859375 231.070312 165.859375 C 230.511719 165.859375 229.980469 165.730469 229.507812 165.5 L 210.839844 184.140625 L 210.839844 196.140625 L 200.667969 206.296875 L 200.667969 220.59375 L 198.394531 220.59375 L 198.394531 205.355469 L 208.5625 195.199219 L 208.5625 183.199219 L 227.875 163.917969 C 227.617188 163.421875 227.46875 162.859375 227.46875 162.261719 C 227.46875 160.277344 229.082031 158.664062 231.070312 158.664062 C 233.0625 158.664062 234.675781 160.277344 234.675781 162.261719 " fill-opacity="1" fill-rule="nonzero"/><path fill="#1c6434" d="M 156.304688 118.546875 C 155.175781 118.546875 154.265625 119.460938 154.265625 120.582031 C 154.265625 121.707031 155.175781 122.617188 156.304688 122.617188 C 157.429688 122.617188 158.339844 121.707031 158.339844 120.582031 C 158.339844 119.460938 157.429688 118.546875 156.304688 118.546875 Z M 157.578125 123.945312 L 157.578125 144.203125 L 176.429688 163.023438 L 176.429688 180.726562 L 174.152344 180.726562 L 174.152344 163.964844 L 155.300781 145.140625 L 155.300781 124.039062 C 153.800781 123.605469 152.699219 122.222656 152.699219 120.582031 C 152.699219 118.597656 154.3125 116.988281 156.304688 116.988281 C 158.292969 116.988281 159.90625 118.597656 159.90625 120.582031 C 159.90625 122.121094 158.9375 123.429688 157.578125 123.945312 " fill-opacity="1" fill-rule="nonzero"/><path fill="#1c6434" d="M 170.308594 137.082031 C 169.179688 137.082031 168.269531 137.992188 168.269531 139.117188 C 168.269531 140.238281 169.179688 141.152344 170.308594 141.152344 C 171.433594 141.152344 172.34375 140.238281 172.34375 139.117188 C 172.34375 137.992188 171.433594 137.082031 170.308594 137.082031 Z M 170.308594 142.714844 C 168.316406 142.714844 166.703125 141.105469 166.703125 139.117188 C 166.703125 137.128906 168.316406 135.519531 170.308594 135.519531 C 172.296875 135.519531 173.910156 137.128906 173.910156 139.117188 C 173.910156 139.671875 173.78125 140.199219 173.554688 140.667969 L 185.386719 152.484375 L 185.386719 224.179688 L 183.113281 224.179688 L 183.113281 153.425781 L 171.972656 142.304688 C 171.472656 142.566406 170.910156 142.714844 170.308594 142.714844 " fill-opacity="1" fill-rule="nonzero"/><g fill="#1c6434" fill-opacity="1"><g transform="translate(121.215252, 269.221653)"><g><path d="M 34.71875 -28 L 41.046875 -28 L 32.4375 0 L 27.046875 0 L 20.765625 -15.6875 L 14.71875 0 L 9.3125 0 L 0.484375 -28 L 6.921875 -28 L 12.40625 -9.40625 L 19.765625 -27.71875 L 21.796875 -27.71875 L 29.359375 -9.40625 Z M 34.71875 -28 "/></g></g></g><g fill="#1c6434" fill-opacity="1"><g transform="translate(162.85111, 269.221653)"><g><path d="M 20.4375 -21.640625 L 24.796875 -21.640625 L 24.796875 -0.046875 L 20.203125 -0.046875 L 19.71875 -1.953125 C 18.78125 -1.160156 17.71875 -0.535156 16.53125 -0.078125 C 15.351562 0.367188 14.082031 0.59375 12.71875 0.59375 C 10.5625 0.59375 8.628906 0.09375 6.921875 -0.90625 C 5.210938 -1.90625 3.863281 -3.265625 2.875 -4.984375 C 1.894531 -6.703125 1.40625 -8.65625 1.40625 -10.84375 C 1.40625 -13 1.894531 -14.9375 2.875 -16.65625 C 3.863281 -18.375 5.210938 -19.726562 6.921875 -20.71875 C 8.628906 -21.707031 10.5625 -22.203125 12.71875 -22.203125 C 14.101562 -22.203125 15.394531 -21.96875 16.59375 -21.5 C 17.800781 -21.03125 18.867188 -20.382812 19.796875 -19.5625 Z M 13.203125 -4.921875 C 14.316406 -4.921875 15.320312 -5.171875 16.21875 -5.671875 C 17.113281 -6.179688 17.8125 -6.882812 18.3125 -7.78125 C 18.820312 -8.675781 19.078125 -9.695312 19.078125 -10.84375 C 19.078125 -11.957031 18.820312 -12.960938 18.3125 -13.859375 C 17.8125 -14.753906 17.113281 -15.460938 16.21875 -15.984375 C 15.320312 -16.503906 14.316406 -16.765625 13.203125 -16.765625 C 12.054688 -16.765625 11.039062 -16.503906 10.15625 -15.984375 C 9.28125 -15.460938 8.585938 -14.753906 8.078125 -13.859375 C 7.566406 -12.960938 7.3125 -11.957031 7.3125 -10.84375 C 7.3125 -9.695312 7.566406 -8.679688 8.078125 -7.796875 C 8.585938 -6.921875 9.28125 -6.222656 10.15625 -5.703125 C 11.039062 -5.179688 12.054688 -4.921875 13.203125 -4.921875 Z M 13.203125 -4.921875 "/></g></g></g><g fill="#1c6434" fill-opacity="1"><g transform="translate(190.448364, 269.221653)"><g><path d="M 10.484375 0.59375 C 8.671875 0.59375 7.082031 0.273438 5.71875 -0.359375 C 4.363281 -0.992188 3.304688 -1.890625 2.546875 -3.046875 C 1.785156 -4.210938 1.40625 -5.570312 1.40625 -7.125 L 7.078125 -7.125 C 7.109375 -6.164062 7.457031 -5.441406 8.125 -4.953125 C 8.789062 -4.472656 9.644531 -4.234375 10.6875 -4.234375 C 11.507812 -4.234375 12.226562 -4.410156 12.84375 -4.765625 C 13.457031 -5.128906 13.765625 -5.675781 13.765625 -6.40625 C 13.765625 -7.144531 13.351562 -7.664062 12.53125 -7.96875 C 11.71875 -8.28125 10.738281 -8.53125 9.59375 -8.71875 C 8.738281 -8.851562 7.851562 -9.039062 6.9375 -9.28125 C 6.019531 -9.519531 5.171875 -9.863281 4.390625 -10.3125 C 3.617188 -10.769531 2.988281 -11.398438 2.5 -12.203125 C 2.007812 -13.003906 1.765625 -14.039062 1.765625 -15.3125 C 1.765625 -16.675781 2.128906 -17.878906 2.859375 -18.921875 C 3.585938 -19.960938 4.597656 -20.769531 5.890625 -21.34375 C 7.191406 -21.914062 8.722656 -22.203125 10.484375 -22.203125 C 12.210938 -22.203125 13.722656 -21.898438 15.015625 -21.296875 C 16.304688 -20.703125 17.3125 -19.863281 18.03125 -18.78125 C 18.757812 -17.695312 19.125 -16.4375 19.125 -15 L 13.5625 -15 C 13.5625 -15.851562 13.273438 -16.492188 12.703125 -16.921875 C 12.128906 -17.347656 11.332031 -17.5625 10.3125 -17.5625 C 9.40625 -17.5625 8.695312 -17.367188 8.1875 -16.984375 C 7.6875 -16.597656 7.4375 -16.097656 7.4375 -15.484375 C 7.4375 -14.765625 7.835938 -14.269531 8.640625 -14 C 9.441406 -13.726562 10.398438 -13.5 11.515625 -13.3125 C 12.398438 -13.15625 13.304688 -12.960938 14.234375 -12.734375 C 15.171875 -12.515625 16.039062 -12.175781 16.84375 -11.71875 C 17.644531 -11.269531 18.289062 -10.644531 18.78125 -9.84375 C 19.269531 -9.039062 19.515625 -7.988281 19.515625 -6.6875 C 19.515625 -5.21875 19.140625 -3.9375 18.390625 -2.84375 C 17.648438 -1.75 16.597656 -0.898438 15.234375 -0.296875 C 13.878906 0.296875 12.296875 0.59375 10.484375 0.59375 Z M 10.484375 0.59375 "/></g></g></g><g fill="#1c6434" fill-opacity="1"><g transform="translate(211.44628, 269.221653)"><g><path d="M 13.359375 -5.203125 L 16 -5.203125 L 16 0 L 11.875 0 C 9.5 0 7.625 -0.6875 6.25 -2.0625 C 4.882812 -3.4375 4.203125 -5.320312 4.203125 -7.71875 L 4.203125 -16.921875 L 0.28125 -16.921875 L 0.28125 -18.15625 L 8.84375 -27.234375 L 9.921875 -27.234375 L 9.921875 -21.59375 L 15.875 -21.59375 L 15.875 -16.921875 L 10.046875 -16.921875 L 10.046875 -8.484375 C 10.046875 -7.441406 10.332031 -6.632812 10.90625 -6.0625 C 11.476562 -5.488281 12.296875 -5.203125 13.359375 -5.203125 Z M 13.359375 -5.203125 "/></g></g></g><g fill="#1c6434" fill-opacity="1"><g transform="translate(228.644574, 269.221653)"><g><path d="M 23.765625 -10.875 C 23.765625 -10.320312 23.722656 -9.75 23.640625 -9.15625 L 7.3125 -9.15625 C 7.5625 -7.6875 8.148438 -6.554688 9.078125 -5.765625 C 10.015625 -4.984375 11.1875 -4.59375 12.59375 -4.59375 C 13.613281 -4.59375 14.519531 -4.8125 15.3125 -5.25 C 16.113281 -5.695312 16.726562 -6.304688 17.15625 -7.078125 L 23.3125 -7.078125 C 22.519531 -4.734375 21.160156 -2.867188 19.234375 -1.484375 C 17.316406 -0.0976562 15.101562 0.59375 12.59375 0.59375 C 10.46875 0.59375 8.554688 0.09375 6.859375 -0.90625 C 5.160156 -1.90625 3.828125 -3.265625 2.859375 -4.984375 C 1.890625 -6.703125 1.40625 -8.640625 1.40625 -10.796875 C 1.40625 -12.960938 1.890625 -14.90625 2.859375 -16.625 C 3.828125 -18.34375 5.160156 -19.703125 6.859375 -20.703125 C 8.554688 -21.703125 10.46875 -22.203125 12.59375 -22.203125 C 14.8125 -22.203125 16.757812 -21.6875 18.4375 -20.65625 C 20.113281 -19.632812 21.421875 -18.269531 22.359375 -16.5625 C 23.296875 -14.851562 23.765625 -12.957031 23.765625 -10.875 Z M 12.59375 -17.234375 C 11.289062 -17.234375 10.191406 -16.875 9.296875 -16.15625 C 8.398438 -15.4375 7.796875 -14.4375 7.484375 -13.15625 L 17.921875 -13.15625 C 17.066406 -15.875 15.289062 -17.234375 12.59375 -17.234375 Z M 12.59375 -17.234375 "/></g></g></g><g fill="#1c6434" fill-opacity="1"><g transform="translate(161.591699, 290.597501)"><g><path d="M 13.75 -11.09375 L 16.25 -11.09375 L 12.84375 0 L 10.703125 0 L 8.21875 -6.203125 L 5.828125 0 L 3.6875 0 L 0.1875 -11.09375 L 2.734375 -11.09375 L 4.90625 -3.71875 L 7.828125 -10.984375 L 8.640625 -10.984375 L 11.625 -3.71875 Z M 13.75 -11.09375 "/></g></g></g><g fill="#1c6434" fill-opacity="1"><g transform="translate(181.984383, 290.597501)"><g><path d="M 1.265625 0 L 1.265625 -11.09375 L 3.671875 -11.09375 L 3.671875 0 Z M 1.265625 0 "/></g></g></g><g fill="#1c6434" fill-opacity="1"><g transform="translate(190.826925, 290.597501)"><g><path d="M 4.9375 0.21875 C 4.09375 0.21875 3.347656 0.0664062 2.703125 -0.234375 C 2.066406 -0.546875 1.566406 -0.984375 1.203125 -1.546875 C 0.835938 -2.117188 0.65625 -2.800781 0.65625 -3.59375 L 3.078125 -3.59375 C 3.078125 -3.050781 3.265625 -2.648438 3.640625 -2.390625 C 4.015625 -2.140625 4.441406 -2.015625 4.921875 -2.015625 C 5.234375 -2.015625 5.519531 -2.0625 5.78125 -2.15625 C 6.050781 -2.257812 6.273438 -2.410156 6.453125 -2.609375 C 6.628906 -2.804688 6.71875 -3.039062 6.71875 -3.3125 C 6.71875 -3.59375 6.613281 -3.816406 6.40625 -3.984375 C 6.207031 -4.148438 5.941406 -4.285156 5.609375 -4.390625 C 5.273438 -4.492188 4.90625 -4.59375 4.5 -4.6875 C 4.082031 -4.78125 3.65625 -4.894531 3.21875 -5.03125 C 2.789062 -5.175781 2.390625 -5.359375 2.015625 -5.578125 C 1.648438 -5.804688 1.359375 -6.113281 1.140625 -6.5 C 0.921875 -6.882812 0.8125 -7.375 0.8125 -7.96875 C 0.8125 -9.03125 1.171875 -9.847656 1.890625 -10.421875 C 2.617188 -11.003906 3.597656 -11.296875 4.828125 -11.296875 C 6.097656 -11.296875 7.082031 -10.972656 7.78125 -10.328125 C 8.476562 -9.691406 8.828125 -8.828125 8.828125 -7.734375 L 6.453125 -7.734375 C 6.453125 -8.203125 6.28125 -8.550781 5.9375 -8.78125 C 5.601562 -9.007812 5.210938 -9.125 4.765625 -9.125 C 4.378906 -9.125 4.019531 -9.039062 3.6875 -8.875 C 3.363281 -8.707031 3.203125 -8.441406 3.203125 -8.078125 C 3.203125 -7.816406 3.296875 -7.609375 3.484375 -7.453125 C 3.679688 -7.296875 3.941406 -7.164062 4.265625 -7.0625 C 4.585938 -6.96875 4.945312 -6.875 5.34375 -6.78125 C 5.757812 -6.675781 6.1875 -6.550781 6.625 -6.40625 C 7.070312 -6.257812 7.484375 -6.066406 7.859375 -5.828125 C 8.242188 -5.585938 8.554688 -5.265625 8.796875 -4.859375 C 9.035156 -4.460938 9.15625 -3.957031 9.15625 -3.34375 C 9.15625 -2.539062 8.960938 -1.875 8.578125 -1.34375 C 8.191406 -0.8125 7.679688 -0.414062 7.046875 -0.15625 C 6.410156 0.09375 5.707031 0.21875 4.9375 0.21875 Z M 4.9375 0.21875 "/></g></g></g><g fill="#1c6434" fill-opacity="1"><g transform="translate(204.533515, 290.597501)"><g><path d="M 3.671875 -2.234375 L 8.09375 -2.234375 L 8.09375 0 L 1.265625 0 L 1.265625 -11.09375 L 7.921875 -11.09375 L 7.921875 -8.875 L 3.671875 -8.875 L 3.671875 -6.6875 L 7.515625 -6.6875 L 7.515625 -4.515625 L 3.671875 -4.515625 Z M 3.671875 -2.234375 "/></g></g></g></svg>