<svg xmlns="http://www.w3.org/2000/svg" xmlns:xlink="http://www.w3.org/1999/xlink" width="500" zoomAndPan="magnify" viewBox="0 0 375 374.999991" height="500" preserveAspectRatio="xMidYMid meet" version="1.0"><defs><g/><clipPath id="0958b79f57"><path d="M 87.398438 93 L 133 93 L 133 134 L 87.398438 134 Z M 87.398438 93 " clip-rule="nonzero"/></clipPath><clipPath id="174baa3609"><path d="M 196 16.003906 L 229 16.003906 L 229 73 L 196 73 Z M 196 16.003906 " clip-rule="nonzero"/></clipPath><clipPath id="49b38287fa"><path d="M 87.398438 138 L 133 138 L 133 179 L 87.398438 179 Z M 87.398438 138 " clip-rule="nonzero"/></clipPath><clipPath id="a0651bc961"><path d="M 111 156 L 170 156 L 170 256.003906 L 111 256.003906 Z M 111 156 " clip-rule="nonzero"/></clipPath><clipPath id="db94bd521f"><path d="M 242 121 L 287.601562 121 L 287.601562 162 L 242 162 Z M 242 121 " clip-rule="nonzero"/></clipPath></defs><g clip-path="url(#0958b79f57)"><path fill="#80cc28" d="M 87.359375 93.734375 C 87.359375 93.734375 141.875 89.328125 130.789062 130.597656 C 105.691406 141.941406 98.875 122.242188 94.378906 107.59375 C 91.890625 99.496094 87.359375 93.734375 87.359375 93.734375 " fill-opacity="1" fill-rule="nonzero"/></g><path fill="#80cc28" d="M 132.84375 37.472656 C 132.84375 37.472656 174.511719 72.878906 137.46875 94.226562 C 111.699219 84.511719 120.816406 65.765625 128 52.230469 C 131.972656 44.746094 132.84375 37.472656 132.84375 37.472656 " fill-opacity="1" fill-rule="nonzero"/><g clip-path="url(#174baa3609)"><path fill="#80cc28" d="M 216.476562 16.015625 C 216.476562 16.015625 174.808594 51.417969 211.855469 72.765625 C 237.625 63.054688 228.507812 44.308594 221.324219 30.773438 C 217.351562 23.289062 216.476562 16.015625 216.476562 16.015625 " fill-opacity="1" fill-rule="nonzero"/></g><path fill="#80cc28" d="M 237.449219 56.515625 C 237.449219 56.515625 205.132812 83.976562 233.863281 100.53125 C 253.851562 93 246.78125 78.460938 241.207031 67.960938 C 238.128906 62.160156 237.449219 56.515625 237.449219 56.515625 " fill-opacity="1" fill-rule="nonzero"/><path fill="#80cc28" d="M 141.753906 93.648438 C 141.753906 93.648438 180.660156 91.027344 172.359375 120.34375 C 154.359375 128.1875 149.6875 114.078125 146.625 103.59375 C 144.929688 97.796875 141.753906 93.648438 141.753906 93.648438 " fill-opacity="1" fill-rule="nonzero"/><path fill="#1c6434" d="M 236.453125 82.277344 C 236.453125 80.480469 234.996094 79.023438 233.195312 79.023438 C 231.394531 79.023438 229.933594 80.480469 229.933594 82.277344 C 229.933594 84.078125 231.394531 85.535156 233.195312 85.535156 C 234.996094 85.535156 236.453125 84.078125 236.453125 82.277344 Z M 231.621094 87.8125 C 229.203125 87.125 227.433594 84.910156 227.433594 82.277344 C 227.433594 79.101562 230.011719 76.523438 233.195312 76.523438 C 236.375 76.523438 238.953125 79.101562 238.953125 82.277344 C 238.953125 84.730469 237.417969 86.816406 235.257812 87.648438 L 235.257812 141.421875 L 199.332031 177.324219 L 199.332031 226.257812 L 195.691406 226.257812 L 195.691406 175.820312 L 231.621094 139.917969 L 231.621094 87.8125 " fill-opacity="1" fill-rule="nonzero"/><path fill="#1c6434" d="M 215.988281 55.351562 C 215.988281 53.550781 214.527344 52.09375 212.730469 52.09375 C 210.929688 52.09375 209.46875 53.550781 209.46875 55.351562 C 209.46875 57.152344 210.929688 58.609375 212.730469 58.609375 C 214.527344 58.609375 215.988281 57.152344 215.988281 55.351562 Z M 211.003906 60.84375 C 208.664062 60.113281 206.96875 57.929688 206.96875 55.351562 C 206.96875 52.171875 209.546875 49.597656 212.730469 49.597656 C 215.910156 49.597656 218.488281 52.171875 218.488281 55.351562 C 218.488281 57.859375 216.882812 59.988281 214.640625 60.777344 L 214.640625 110.324219 L 199.332031 125.621094 L 199.332031 159.632812 L 195.691406 159.632812 L 195.691406 124.117188 L 211.003906 108.816406 L 211.003906 60.84375 " fill-opacity="1" fill-rule="nonzero"/><path fill="#1c6434" d="M 117.679688 121.035156 C 119.480469 121.035156 120.941406 119.578125 120.941406 117.777344 C 120.941406 115.976562 119.480469 114.519531 117.679688 114.519531 C 115.878906 114.519531 114.421875 115.976562 114.421875 117.777344 C 114.421875 119.578125 115.878906 121.035156 117.679688 121.035156 Z M 117.679688 112.019531 C 120.863281 112.019531 123.441406 114.597656 123.441406 117.777344 C 123.441406 118.734375 123.207031 119.632812 122.792969 120.425781 L 153.664062 151.277344 L 153.664062 170.480469 L 169.925781 186.726562 L 169.925781 211.109375 L 166.285156 211.109375 L 166.285156 188.230469 L 150.027344 171.984375 L 150.027344 152.785156 L 120.179688 122.957031 C 119.421875 123.324219 118.578125 123.535156 117.679688 123.535156 C 114.5 123.535156 111.917969 120.957031 111.917969 117.777344 C 111.917969 114.597656 114.5 112.019531 117.679688 112.019531 " fill-opacity="1" fill-rule="nonzero"/><g clip-path="url(#49b38287fa)"><path fill="#80cc28" d="M 87.359375 138.628906 C 87.359375 138.628906 141.875 134.222656 130.789062 175.492188 C 105.691406 186.835938 98.875 167.136719 94.378906 152.488281 C 91.890625 144.390625 87.359375 138.628906 87.359375 138.628906 " fill-opacity="1" fill-rule="nonzero"/></g><g clip-path="url(#a0651bc961)"><path fill="#1c6434" d="M 117.679688 165.929688 C 119.480469 165.929688 120.941406 164.46875 120.941406 162.671875 C 120.941406 160.875 119.480469 159.414062 117.679688 159.414062 C 115.878906 159.414062 114.421875 160.875 114.421875 162.671875 C 114.421875 164.46875 115.878906 165.929688 117.679688 165.929688 Z M 117.679688 156.917969 C 120.863281 156.917969 123.441406 159.492188 123.441406 162.671875 C 123.441406 163.628906 123.207031 164.527344 122.792969 165.320312 L 153.664062 196.171875 L 153.664062 215.375 L 169.925781 231.621094 L 169.925781 256.003906 L 166.285156 256.003906 L 166.285156 233.125 L 150.027344 216.878906 L 150.027344 197.679688 L 120.179688 167.851562 C 119.421875 168.21875 118.578125 168.429688 117.679688 168.429688 C 114.5 168.429688 111.917969 165.851562 111.917969 162.671875 C 111.917969 159.492188 114.5 156.917969 117.679688 156.917969 " fill-opacity="1" fill-rule="nonzero"/></g><g clip-path="url(#db94bd521f)"><path fill="#80cc28" d="M 287.609375 121.171875 C 287.609375 121.171875 233.089844 116.761719 244.179688 158.035156 C 269.273438 169.375 276.09375 149.675781 280.589844 135.027344 C 283.078125 126.933594 287.609375 121.171875 287.609375 121.171875 " fill-opacity="1" fill-rule="nonzero"/></g><path fill="#1c6434" d="M 260.546875 145.210938 C 260.546875 143.414062 259.085938 141.957031 257.289062 141.957031 C 255.488281 141.957031 254.027344 143.414062 254.027344 145.210938 C 254.027344 147.011719 255.488281 148.46875 257.289062 148.46875 C 259.085938 148.46875 260.546875 147.011719 260.546875 145.210938 Z M 263.046875 145.210938 C 263.046875 148.390625 260.46875 150.96875 257.289062 150.96875 C 256.390625 150.96875 255.542969 150.757812 254.789062 150.394531 L 224.9375 180.21875 L 224.9375 199.417969 L 208.679688 215.667969 L 208.679688 238.542969 L 205.042969 238.542969 L 205.042969 214.160156 L 221.300781 197.914062 L 221.300781 178.714844 L 252.175781 147.859375 C 251.761719 147.066406 251.527344 146.167969 251.527344 145.210938 C 251.527344 142.035156 254.105469 139.457031 257.289062 139.457031 C 260.46875 139.457031 263.046875 142.035156 263.046875 145.210938 " fill-opacity="1" fill-rule="nonzero"/><path fill="#1c6434" d="M 137.746094 75.269531 C 135.949219 75.269531 134.488281 76.726562 134.488281 78.523438 C 134.488281 80.324219 135.949219 81.78125 137.746094 81.78125 C 139.546875 81.78125 141.007812 80.324219 141.007812 78.523438 C 141.007812 76.726562 139.546875 75.269531 137.746094 75.269531 Z M 139.785156 83.902344 L 139.785156 116.3125 L 169.925781 146.433594 L 169.925781 174.753906 L 166.285156 174.753906 L 166.285156 147.9375 L 136.148438 117.820312 L 136.148438 84.050781 C 133.746094 83.355469 131.988281 81.148438 131.988281 78.523438 C 131.988281 75.34375 134.566406 72.769531 137.746094 72.769531 C 140.929688 72.769531 143.507812 75.34375 143.507812 78.523438 C 143.507812 80.988281 141.960938 83.082031 139.785156 83.902344 " fill-opacity="1" fill-rule="nonzero"/><path fill="#1c6434" d="M 160.136719 104.921875 C 158.339844 104.921875 156.878906 106.378906 156.878906 108.175781 C 156.878906 109.976562 158.339844 111.433594 160.136719 111.433594 C 161.9375 111.433594 163.398438 109.976562 163.398438 108.175781 C 163.398438 106.378906 161.9375 104.921875 160.136719 104.921875 Z M 160.136719 113.933594 C 156.957031 113.933594 154.378906 111.355469 154.378906 108.175781 C 154.378906 105 156.957031 102.421875 160.136719 102.421875 C 163.320312 102.421875 165.898438 105 165.898438 108.175781 C 165.898438 109.070312 165.691406 109.910156 165.328125 110.660156 L 184.25 129.570312 L 184.25 244.285156 L 180.609375 244.285156 L 180.609375 131.074219 L 162.800781 113.277344 C 162.003906 113.695312 161.097656 113.933594 160.136719 113.933594 " fill-opacity="1" fill-rule="nonzero"/><g fill="#1c6434" fill-opacity="1"><g transform="translate(81.388657, 316.504523)"><g><path d="M 55.578125 -44.828125 L 65.703125 -44.828125 L 51.921875 0 L 43.28125 0 L 33.234375 -25.09375 L 23.5625 0 L 14.921875 0 L 0.765625 -44.828125 L 11.078125 -44.828125 L 19.84375 -15.046875 L 31.625 -44.375 L 34.890625 -44.375 L 47 -15.046875 Z M 55.578125 -44.828125 "/></g></g></g><g fill="#1c6434" fill-opacity="1"><g transform="translate(148.041048, 316.504523)"><g><path d="M 32.71875 -34.640625 L 39.703125 -34.640625 L 39.703125 -0.0625 L 32.328125 -0.0625 L 31.5625 -3.140625 C 30.070312 -1.859375 28.375 -0.851562 26.46875 -0.125 C 24.570312 0.59375 22.535156 0.953125 20.359375 0.953125 C 16.898438 0.953125 13.804688 0.15625 11.078125 -1.4375 C 8.347656 -3.039062 6.191406 -5.21875 4.609375 -7.96875 C 3.023438 -10.726562 2.234375 -13.859375 2.234375 -17.359375 C 2.234375 -20.804688 3.023438 -23.90625 4.609375 -26.65625 C 6.191406 -29.414062 8.347656 -31.582031 11.078125 -33.15625 C 13.804688 -34.738281 16.898438 -35.53125 20.359375 -35.53125 C 22.578125 -35.53125 24.644531 -35.15625 26.5625 -34.40625 C 28.488281 -33.664062 30.203125 -32.632812 31.703125 -31.3125 Z M 21.125 -7.875 C 22.914062 -7.875 24.523438 -8.28125 25.953125 -9.09375 C 27.390625 -9.90625 28.515625 -11.023438 29.328125 -12.453125 C 30.140625 -13.878906 30.546875 -15.515625 30.546875 -17.359375 C 30.546875 -19.148438 30.140625 -20.757812 29.328125 -22.1875 C 28.515625 -23.613281 27.390625 -24.742188 25.953125 -25.578125 C 24.523438 -26.410156 22.914062 -26.828125 21.125 -26.828125 C 19.289062 -26.828125 17.671875 -26.410156 16.265625 -25.578125 C 14.859375 -24.742188 13.75 -23.613281 12.9375 -22.1875 C 12.125 -20.757812 11.71875 -19.148438 11.71875 -17.359375 C 11.71875 -15.515625 12.125 -13.890625 12.9375 -12.484375 C 13.75 -11.078125 14.859375 -9.957031 16.265625 -9.125 C 17.671875 -8.289062 19.289062 -7.875 21.125 -7.875 Z M 21.125 -7.875 "/></g></g></g><g fill="#1c6434" fill-opacity="1"><g transform="translate(192.219866, 316.504523)"><g><path d="M 16.78125 0.953125 C 13.875 0.953125 11.332031 0.441406 9.15625 -0.578125 C 6.976562 -1.597656 5.28125 -3.035156 4.0625 -4.890625 C 2.84375 -6.753906 2.234375 -8.921875 2.234375 -11.390625 L 11.328125 -11.390625 C 11.367188 -9.859375 11.921875 -8.707031 12.984375 -7.9375 C 14.054688 -7.164062 15.425781 -6.78125 17.09375 -6.78125 C 18.414062 -6.78125 19.566406 -7.066406 20.546875 -7.640625 C 21.535156 -8.222656 22.03125 -9.09375 22.03125 -10.25 C 22.03125 -11.4375 21.378906 -12.273438 20.078125 -12.765625 C 18.773438 -13.265625 17.207031 -13.660156 15.375 -13.953125 C 14 -14.171875 12.578125 -14.472656 11.109375 -14.859375 C 9.640625 -15.242188 8.285156 -15.796875 7.046875 -16.515625 C 5.804688 -17.242188 4.789062 -18.25 4 -19.53125 C 3.207031 -20.8125 2.8125 -22.476562 2.8125 -24.53125 C 2.8125 -26.707031 3.398438 -28.625 4.578125 -30.28125 C 5.753906 -31.945312 7.375 -33.238281 9.4375 -34.15625 C 11.507812 -35.070312 13.957031 -35.53125 16.78125 -35.53125 C 19.550781 -35.53125 21.972656 -35.050781 24.046875 -34.09375 C 26.117188 -33.132812 27.726562 -31.789062 28.875 -30.0625 C 30.03125 -28.332031 30.609375 -26.316406 30.609375 -24.015625 L 21.703125 -24.015625 C 21.703125 -25.378906 21.242188 -26.398438 20.328125 -27.078125 C 19.410156 -27.765625 18.140625 -28.109375 16.515625 -28.109375 C 15.066406 -28.109375 13.9375 -27.796875 13.125 -27.171875 C 12.3125 -26.554688 11.90625 -25.757812 11.90625 -24.78125 C 11.90625 -23.625 12.546875 -22.832031 13.828125 -22.40625 C 15.109375 -21.976562 16.644531 -21.617188 18.4375 -21.328125 C 19.84375 -21.066406 21.289062 -20.753906 22.78125 -20.390625 C 24.28125 -20.023438 25.671875 -19.476562 26.953125 -18.75 C 28.234375 -18.03125 29.269531 -17.03125 30.0625 -15.75 C 30.851562 -14.46875 31.25 -12.78125 31.25 -10.6875 C 31.25 -8.34375 30.648438 -6.296875 29.453125 -4.546875 C 28.253906 -2.796875 26.566406 -1.441406 24.390625 -0.484375 C 22.210938 0.472656 19.675781 0.953125 16.78125 0.953125 Z M 16.78125 0.953125 "/></g></g></g><g fill="#1c6434" fill-opacity="1"><g transform="translate(225.834191, 316.504523)"><g><path d="M 21.390625 -8.328125 L 25.609375 -8.328125 L 25.609375 0 L 19.015625 0 C 15.210938 0 12.210938 -1.097656 10.015625 -3.296875 C 7.816406 -5.492188 6.71875 -8.515625 6.71875 -12.359375 L 6.71875 -27.078125 L 0.453125 -27.078125 L 0.453125 -29.0625 L 14.15625 -43.609375 L 15.875 -43.609375 L 15.875 -34.578125 L 25.421875 -34.578125 L 25.421875 -27.078125 L 16.078125 -27.078125 L 16.078125 -13.578125 C 16.078125 -11.910156 16.535156 -10.617188 17.453125 -9.703125 C 18.367188 -8.785156 19.679688 -8.328125 21.390625 -8.328125 Z M 21.390625 -8.328125 "/></g></g></g><g fill="#1c6434" fill-opacity="1"><g transform="translate(253.365927, 316.504523)"><g><path d="M 38.03125 -17.421875 C 38.03125 -16.523438 37.96875 -15.601562 37.84375 -14.65625 L 11.71875 -14.65625 C 12.101562 -12.3125 13.039062 -10.507812 14.53125 -9.25 C 16.03125 -7.988281 17.910156 -7.359375 20.171875 -7.359375 C 21.796875 -7.359375 23.242188 -7.710938 24.515625 -8.421875 C 25.796875 -9.128906 26.78125 -10.097656 27.46875 -11.328125 L 37.328125 -11.328125 C 36.046875 -7.578125 33.867188 -4.59375 30.796875 -2.375 C 27.722656 -0.15625 24.179688 0.953125 20.171875 0.953125 C 16.753906 0.953125 13.691406 0.15625 10.984375 -1.4375 C 8.273438 -3.039062 6.140625 -5.21875 4.578125 -7.96875 C 3.015625 -10.726562 2.234375 -13.832031 2.234375 -17.28125 C 2.234375 -20.738281 3.015625 -23.84375 4.578125 -26.59375 C 6.140625 -29.351562 8.273438 -31.53125 10.984375 -33.125 C 13.691406 -34.726562 16.753906 -35.53125 20.171875 -35.53125 C 23.710938 -35.53125 26.828125 -34.707031 29.515625 -33.0625 C 32.203125 -31.425781 34.289062 -29.238281 35.78125 -26.5 C 37.28125 -23.769531 38.03125 -20.742188 38.03125 -17.421875 Z M 20.171875 -27.59375 C 18.078125 -27.59375 16.316406 -27.015625 14.890625 -25.859375 C 13.460938 -24.710938 12.488281 -23.113281 11.96875 -21.0625 L 28.6875 -21.0625 C 27.320312 -25.414062 24.484375 -27.59375 20.171875 -27.59375 Z M 20.171875 -27.59375 "/></g></g></g><g fill="#1c6434" fill-opacity="1"><g transform="translate(146.024922, 350.723844)"><g><path d="M 22.03125 -17.765625 L 26.03125 -17.765625 L 20.578125 0 L 17.15625 0 L 13.171875 -9.953125 L 9.34375 0 L 5.90625 0 L 0.296875 -17.765625 L 4.390625 -17.765625 L 7.859375 -5.96875 L 12.53125 -17.578125 L 13.828125 -17.578125 L 18.625 -5.96875 Z M 22.03125 -17.765625 "/></g></g></g><g fill="#1c6434" fill-opacity="1"><g transform="translate(178.670369, 350.723844)"><g><path d="M 2.03125 0 L 2.03125 -17.765625 L 5.890625 -17.765625 L 5.890625 0 Z M 2.03125 0 "/></g></g></g><g fill="#1c6434" fill-opacity="1"><g transform="translate(192.825873, 350.723844)"><g><path d="M 7.921875 0.359375 C 6.566406 0.359375 5.375 0.113281 4.34375 -0.375 C 3.3125 -0.863281 2.503906 -1.566406 1.921875 -2.484375 C 1.335938 -3.398438 1.046875 -4.492188 1.046875 -5.765625 L 4.921875 -5.765625 C 4.921875 -4.898438 5.21875 -4.257812 5.8125 -3.84375 C 6.414062 -3.425781 7.109375 -3.21875 7.890625 -3.21875 C 8.378906 -3.21875 8.835938 -3.296875 9.265625 -3.453125 C 9.703125 -3.617188 10.0625 -3.859375 10.34375 -4.171875 C 10.625 -4.484375 10.765625 -4.859375 10.765625 -5.296875 C 10.765625 -5.753906 10.601562 -6.113281 10.28125 -6.375 C 9.957031 -6.644531 9.523438 -6.863281 8.984375 -7.03125 C 8.441406 -7.195312 7.847656 -7.359375 7.203125 -7.515625 C 6.546875 -7.660156 5.867188 -7.84375 5.171875 -8.0625 C 4.484375 -8.289062 3.84375 -8.582031 3.25 -8.9375 C 2.65625 -9.300781 2.179688 -9.789062 1.828125 -10.40625 C 1.472656 -11.03125 1.296875 -11.816406 1.296875 -12.765625 C 1.296875 -14.472656 1.875 -15.785156 3.03125 -16.703125 C 4.1875 -17.628906 5.753906 -18.09375 7.734375 -18.09375 C 9.765625 -18.09375 11.335938 -17.578125 12.453125 -16.546875 C 13.578125 -15.523438 14.140625 -14.140625 14.140625 -12.390625 L 10.328125 -12.390625 C 10.328125 -13.148438 10.054688 -13.707031 9.515625 -14.0625 C 8.972656 -14.425781 8.347656 -14.609375 7.640625 -14.609375 C 7.015625 -14.609375 6.4375 -14.472656 5.90625 -14.203125 C 5.382812 -13.929688 5.125 -13.507812 5.125 -12.9375 C 5.125 -12.519531 5.28125 -12.1875 5.59375 -11.9375 C 5.90625 -11.695312 6.316406 -11.492188 6.828125 -11.328125 C 7.347656 -11.171875 7.921875 -11.015625 8.546875 -10.859375 C 9.222656 -10.691406 9.914062 -10.492188 10.625 -10.265625 C 11.34375 -10.035156 12.003906 -9.722656 12.609375 -9.328125 C 13.222656 -8.941406 13.71875 -8.425781 14.09375 -7.78125 C 14.476562 -7.144531 14.671875 -6.335938 14.671875 -5.359375 C 14.671875 -4.066406 14.359375 -3 13.734375 -2.15625 C 13.117188 -1.3125 12.300781 -0.679688 11.28125 -0.265625 C 10.269531 0.148438 9.148438 0.359375 7.921875 0.359375 Z M 7.921875 0.359375 "/></g></g></g><g fill="#1c6434" fill-opacity="1"><g transform="translate(214.767945, 350.723844)"><g><path d="M 5.890625 -3.578125 L 12.96875 -3.578125 L 12.96875 0 L 2.03125 0 L 2.03125 -17.765625 L 12.6875 -17.765625 L 12.6875 -14.203125 L 5.890625 -14.203125 L 5.890625 -10.703125 L 12.03125 -10.703125 L 12.03125 -7.234375 L 5.890625 -7.234375 Z M 5.890625 -3.578125 "/></g></g></g></svg>